<?xml version="1.0" standalone="no"?>
<!DOCTYPE svg PUBLIC "-//W3C//DTD SVG 20010904//EN"
 "http://www.w3.org/TR/2001/REC-SVG-20010904/DTD/svg10.dtd">
<svg version="1.0" xmlns="http://www.w3.org/2000/svg"
 width="512.000000pt" height="512.000000pt" viewBox="0 0 512.000000 512.000000"
 preserveAspectRatio="xMidYMid meet">

<g transform="translate(0.000000,512.000000) scale(0.100000,-0.100000)"
fill="#000000" stroke="none">
<path d="M2470 5109 c-120 -23 -245 -121 -300 -233 -144 -291 66 -630 390
-630 214 0 394 152 430 363 51 301 -217 559 -520 500z"/>
<path d="M2150 4089 c-147 -19 -273 -122 -354 -292 -24 -50 -110 -279 -191
-507 -81 -228 -192 -538 -246 -688 -67 -184 -99 -286 -99 -315 0 -60 36 -125
88 -162 38 -26 52 -30 112 -30 60 0 74 4 111 30 25 18 51 48 65 75 12 25 106
280 209 567 l188 522 27 -42 c14 -23 34 -48 43 -56 14 -11 17 -35 17 -157 l0
-144 -175 -441 c-96 -243 -175 -455 -175 -470 0 -53 31 -70 200 -112 l55 -13
5 -845 5 -844 27 -46 c82 -139 279 -157 386 -35 63 72 62 62 62 898 l0 758 50
0 50 0 0 -758 c0 -836 -1 -826 62 -898 107 -122 304 -104 386 35 l27 46 5 844
5 845 55 13 c166 41 200 60 200 114 0 14 -79 225 -175 468 l-175 441 0 144 c0
122 3 146 17 157 9 8 29 33 43 56 l27 42 188 -522 c103 -287 197 -542 209
-567 14 -27 40 -57 65 -75 37 -26 51 -30 111 -30 60 0 74 4 112 30 52 37 88
102 88 162 0 29 -32 131 -99 315 -54 150 -165 460 -246 688 -81 228 -167 457
-191 507 -84 175 -205 272 -364 293 -90 11 -719 11 -810 -1z"/>
</g>
</svg>
